<?xml version="1.0" encoding="utf-8"?>
<!-- Generator: Adobe Illustrator 24.0.1, SVG Export Plug-In . SVG Version: 6.00 Build 0)  -->
<svg version="1.1" id="Layer_1" xmlns="http://www.w3.org/2000/svg" xmlns:xlink="http://www.w3.org/1999/xlink" x="0px" y="0px"
	 viewBox="0 0 248 53" style="enable-background:new 0 0 248 53;" xml:space="preserve">
<style type="text/css">
	.st0{fill:#036703;}
	.st1{fill:#EA841D;}
</style>
<path class="st0" d="M8.39,14.6L18.04,7v38.98H8.39V14.6z M36.26,14.17v31.81H26.6V12.28l-6.8,0.06l4.84-3.82
	C25.92,7.53,27.47,7,29.09,7C33.03,7,36.26,10.2,36.26,14.17z M54.44,14.17v31.81h-9.65V12.15h-6.55l4.62-3.63
	C44.11,7.53,45.69,7,47.27,7C51.25,7,54.44,10.2,54.44,14.17z"/>
<path class="st0" d="M58.57,26.52c0-11.82,10.68-19.49,18.13-19.49c-2.98,1.65-7.29,9.75-7.29,19.49s4.75,17.88,7.29,19.49
	C69.25,46.01,58.57,38.31,58.57,26.52z M78.84,7.03c7.45,0,18.09,7.67,18.09,19.49c0,11.79-10.65,19.49-18.09,19.49
	c2.54-1.61,7.26-9.75,7.26-19.49S81.79,8.68,78.84,7.03z"/>
<path class="st0" d="M99.57,26.52c0-11.82,10.68-19.49,18.13-19.49c-2.98,1.65-7.29,9.75-7.29,19.49s4.75,17.88,7.29,19.49
	C110.25,46.01,99.57,38.31,99.57,26.52z M119.84,7.03c7.45,0,18.09,7.67,18.09,19.49c0,11.79-10.65,19.49-18.09,19.49
	c2.54-1.61,7.26-9.75,7.26-19.49S122.79,8.68,119.84,7.03z"/>
<path class="st1" d="M142.56,14.6l9.65-7.6v38.98h-9.65V14.6z M170.43,14.17v31.81h-9.65V12.28l-6.8,0.06l4.84-3.82
	c1.27-0.99,2.82-1.52,4.44-1.52C167.2,7,170.43,10.2,170.43,14.17z M188.61,14.17v31.81h-9.65V12.15h-6.55l4.62-3.63
	c1.24-0.99,2.82-1.52,4.41-1.52C185.42,7,188.61,10.2,188.61,14.17z"/>
<path class="st1" d="M204.29,45.98h-9.56V14.2c0-3.91,3.2-7.08,7.11-7.08c0.84,0,1.68,0.16,2.45,0.43v4.72V45.98z"/>
<path class="st1" d="M220.49,45.98h-9.59V14.54L220.49,7V45.98z M231.41,7c3.91,0,7.11,3.17,7.11,7.11v31.87h-9.56V12.24l-6.73,0.06
	L227,8.52C228.28,7.53,229.83,7,231.41,7z"/>
</svg>
